<svg xmlns="http://www.w3.org/2000/svg" viewBox="0 0 372.18 102.18"><title>Recurso 5</title><g id="Capa_2" data-name="Capa 2"><g id="Capa_1-2" data-name="Capa 1"><path d="M43.73,10.84,14.88,54.21H43.73V65.05H0V55.12L28.66,11.76H0V.92H43.73Z"/><path d="M105.38,52.83H79.84L75.61,65.05H62.11L85.17.83h15L123.2,65.05H109.6ZM92.61,15.71,83.33,42.54h18.56Z"/><path d="M167.3.92c15.44,0,23.16,8.91,23.16,19.66,0,7.81-4.32,15.71-14.61,18.47l15.34,26H176.31l-14.15-25h-6.07v25H143.23V.92Zm-.46,10.66H156.09V30.41h10.75c7.17,0,10.38-3.77,10.38-9.55S174,11.58,166.84,11.58Z"/><path d="M226.38.92V54.85h21.13v10.2h-34V.92Z"/><path d="M304.29,11.3H279.94V27.38h21.59v10.2H279.94v17h24.35V65.05H267.08V.83h37.21Z"/><path d="M349.49,65.69c-13.32,0-23.61-7-23.79-19.11h13.78c.36,5.14,3.76,8.54,9.73,8.54s9.65-3.21,9.65-7.81c0-13.87-33.07-5.51-33-28.75C325.88,7,335.25,0,348.48,0s22.14,6.71,23,18.28H357.3c-.27-4.22-3.67-7.53-9.19-7.62-5.05-.19-8.82,2.29-8.82,7.53,0,12.86,32.89,5.7,32.89,28.3C372.18,56.59,364.1,65.69,349.49,65.69Z"/><path d="M76.35,80.73H89.47v3.44H80.61v5.45H87.4V93H80.61v9H76.35Z"/><path d="M106.9,102.18a10.88,10.88,0,1,1,10.87-10.89A10.67,10.67,0,0,1,106.9,102.18Zm0-3.8c3.84,0,6.49-2.77,6.49-7.09s-2.65-7-6.49-7-6.51,2.71-6.51,7S103,98.38,106.9,98.38Z"/><path d="M124.37,80.73H140v3.44h-5.66V102H130V84.17h-5.66Z"/><path d="M157.47,102.18a10.88,10.88,0,1,1,10.87-10.89A10.67,10.67,0,0,1,157.47,102.18Zm0-3.8c3.84,0,6.49-2.77,6.49-7.09s-2.65-7-6.49-7S151,87,151,91.29,153.61,98.38,157.47,98.38Zm3.32-25.53v3.47l-7,3.2v-3Z"/><path d="M195.75,87.12h-4.9a5.34,5.34,0,0,0-5-2.74c-3.8,0-6.45,2.71-6.45,6.94s2.68,7,6.64,7a5.77,5.77,0,0,0,6-4.9h-7.3V90.17h11.5v3.71a10.38,10.38,0,0,1-10.38,8.27,10.85,10.85,0,1,1,0-21.69C190.61,80.46,194.38,82.86,195.75,87.12Z"/><path d="M212,80.73c5.11,0,7.67,3,7.67,6.51a6.13,6.13,0,0,1-4.84,6.12l5.08,8.61H215l-4.68-8.28h-2V102H204V80.73Zm-.15,3.53h-3.56V90.5h3.56c2.37,0,3.44-1.25,3.44-3.16S214.19,84.26,211.82,84.26Z"/><path d="M241.09,97.92h-8.46l-1.4,4h-4.47L234.4,80.7h5L247,102h-4.5Zm-4.23-12.29-3.07,8.89h6.14Z"/><path d="M254.42,80.73h13.11v3.44h-8.85v5.45h6.78V93h-6.78v9h-4.26Z"/><path d="M285,102.18a10.88,10.88,0,1,1,10.86-10.89A10.67,10.67,0,0,1,285,102.18Zm0-3.8c3.83,0,6.48-2.77,6.48-7.09s-2.65-7-6.48-7-6.51,2.71-6.51,7S281.1,98.38,285,98.38Z"/></g></g></svg>