<?xml version="1.0" encoding="UTF-8"?>
<svg id="Capa_2" data-name="Capa 2" xmlns="http://www.w3.org/2000/svg" viewBox="0 0 72.59 72.63">
  <defs>
    <style>
      .cls-1 {
        fill: #c4c4c4;
      }
    </style>
  </defs>
  <g id="Capa_1-2" data-name="Capa 1">
    <g>
      <path class="cls-1" d="m26.35,36.47q.16-.16,0-.32c-2.16-2.16-4.24-4.24-6.4-6.4l-6.24-6.24c-.08-.08-.16-.16-.32-.32v26.14h.08c.08,0,.08-.08.16-.16l6.08-6.08c2.24-2.24,4.4-4.4,6.64-6.64Z"/>
      <path class="cls-1" d="m20.68,22.4c4.56,4.48,9.11,9.11,13.67,13.67.56.48,1.2.72,1.92.72.8,0,1.52-.32,2.08-.88,3.28-3.2,6.48-6.48,9.75-9.67,1.36-1.36,2.72-2.8,4.08-4.16.08,0,.08-.08.16-.16.24-.24.48-.4.72-.64.16-.16.32-.4.48-.48.24-.16.32-.4.56-.56.16-.16.32-.32.48-.56.08-.08.16-.16.32-.24.08-.08.16-.08.24-.16-.08-.08-.16-.16-.24-.16H17.48c.08.08.08.16.08.16,1.04.96,2.08,2.08,3.12,3.12Z"/>
      <path class="cls-1" d="m39.54,41.91c-1.12.4-2.24.64-3.52.64-2-.08-3.76-.8-5.28-2.08q-.16-.08-.32,0c-.72.72-1.44,1.44-2.16,2.16-.24.32-.48.64-.88.8,0,0-.08,0-.08.08,0,0,0,.16-.08.16-.16.08-.24.24-.4.4,0,0,0,.08-.08.08-.08.08-.16.08-.24.16-.16.16-.24.4-.4.56-.32.24-.56.48-.8.72-.24.24-.4.48-.64.72-.24.24-.48.4-.72.64-.88.88-1.68,1.76-2.56,2.56-1.28,1.28-2.48,2.56-3.76,3.76,0,.08-.08.16-.16.24h37.58l-13.11-13.11c-.72.56-1.52,1.12-2.4,1.52Z"/>
      <path class="cls-1" d="m59.21,23.44s-.08-.08-.08-.16c-.08.08-.16.08-.24.16-2.16,2.24-4.4,4.48-6.64,6.72-2,2-4,4-6.08,6-.08.08-.08.16,0,.32,2,1.92,3.92,3.84,5.84,5.76,1.36,1.36,2.72,2.8,4,4.16.24.16.48.32.72.56.72.72,1.52,1.52,2.24,2.24l.16.16c0-.08.08-.08.08-.08v-5.04c0-.16.08-.32,0-.48v-20.31Z"/>
      <path class="cls-1" d="m72.52,34.1v-6.51c0-3.36,0-7.02-.73-10.53-1.61-7.68-6.21-12.87-13.45-15.5-3.66-1.17-7.31-1.39-11.33-1.46C41.01-.04,35.02-.04,29.1.11h-1.1c-3.58,0-7.31,0-11.04.73C9.28,2.45,4.09,6.98,1.61,14.22.29,17.87.07,21.53.07,25.62c-.07,5.92-.07,11.77-.07,17.69v1.17c0,3.66,0,7.31.8,11.11,1.54,7.75,6.14,12.94,13.31,15.42,3.73,1.32,7.31,1.54,11.4,1.54,3.8.07,7.6.07,11.4.07h7.31c3.73,0,7.53,0,11.33-.88,6.21-1.24,10.89-4.53,13.89-9.87,1.83-3.22,2.78-7.02,2.85-11.84.15-3.14.22-6.29.22-9.43l.07-2.34v-4.17h-.07Zm-6.67,16.76c0,1.92-.64,3.84-1.84,5.52-1.52,2-3.52,3.2-6,3.68-.48.08-.96.16-1.36.16l-15.43-.08h-.72l-2.48.08h-21.91c-1.84,0-3.6-.56-5.12-1.6-2.24-1.52-3.68-3.6-4.16-6.32-.08-.48-.16-.96-.16-1.44v-17.99c.08-.16.08-.4.08-.56v-3.52c-.08-2.32-.08-4.64-.08-6.96,0-2,.64-3.84,1.92-5.6,1.04-1.36,2.32-2.4,3.92-3.04,1.2-.56,2.48-.8,3.84-.8h.08c3.28.08,6.64,0,9.99.08h24.94c1.76-.08,3.52-.08,5.28,0,1.92,0,3.68.56,5.36,1.76,1.2.96,2.24,2.16,2.88,3.52.64,1.28.96,2.64.96,4.08.08,9.67.08,19.35,0,29.02Z"/>
    </g>
  </g>
</svg>
