<?xml version="1.0" encoding="UTF-8"?>
<svg id="Capa_2" data-name="Capa 2" xmlns="http://www.w3.org/2000/svg" viewBox="0 0 72.63 72.61">
  <defs>
    <style>
      .cls-1 {
        fill: #c4c4c4;
      }
    </style>
  </defs>
  <g id="Capa_1-2" data-name="Capa 1">
    <g>
      <path class="cls-1" d="m72.54,34.06v-6.46c0-3.42,0-7.03-.76-10.54-1.61-7.69-6.17-12.91-13.39-15.48-3.7-1.23-7.31-1.42-11.39-1.52C41.02-.02,35.04-.02,29.15.07h-1.14c-3.61,0-7.31,0-11.01.76C9.3,2.44,4.08,7,1.61,14.22.29,17.83.1,21.53.1,25.61c-.1,5.89-.1,11.77-.1,17.66v1.23c0,3.61,0,7.31.85,11.11,1.52,7.69,6.08,12.91,13.29,15.38,3.7,1.33,7.31,1.52,11.39,1.52,3.8.1,7.6.1,11.39.1h7.31c3.7,0,7.5,0,11.3-.85,6.27-1.23,10.92-4.56,13.96-9.87,1.8-3.23,2.75-7.03,2.85-11.87.1-3.13.19-6.27.19-9.4l.1-2.37v-4.18h-.1Zm-8.55,12.44c0,2.75,0,5.51-.76,8.17-1.33,5.03-4.65,7.98-9.68,8.83-2.85.48-5.79.57-8.73.57-6.17.09-12.44.09-18.61,0-2.75,0-5.6-.1-8.26-.76-5.03-1.33-7.98-4.65-8.83-9.68-.48-2.85-.48-5.79-.57-8.73-.1-2.85-.1-5.7-.1-8.55h-.1c.1-4.46.19-8.83.28-13.2.1-2.28.29-4.65,1.23-6.84,1.61-4.08,4.75-6.46,9.12-7.12,2.85-.47,5.79-.57,8.73-.66,6.17,0,12.44,0,18.7.1,2.75,0,5.51,0,8.26.76,4.94,1.33,7.98,4.65,8.73,9.68.47,2.85.57,5.7.66,8.64,0,6.27,0,12.53-.1,18.8Z"/>
      <path class="cls-1" d="m36.36,18.87c-9.78,0-17.47,7.79-17.47,17.47s7.69,17.38,17.38,17.38,17.38-7.69,17.38-17.38-7.69-17.37-17.28-17.47Zm-.1,28.77c-6.27,0-11.39-5.13-11.3-11.39.1-6.27,5.13-11.3,11.39-11.2,6.17,0,11.2,5.13,11.2,11.39s-5.13,11.2-11.3,11.2Z"/>
      <circle class="cls-1" cx="54.4" cy="18.21" r="4.08"/>
    </g>
  </g>
</svg>
