<?xml version="1.0" encoding="UTF-8"?>
<svg id="Capa_2" data-name="Capa 2" xmlns="http://www.w3.org/2000/svg" viewBox="0 0 73.82 74.04">
  <defs>
    <style>
      .cls-1 {
        fill: #c4c4c4;
      }
    </style>
  </defs>
  <g id="Capa_1-2" data-name="Capa 1">
    <g>
      <path class="cls-1" d="m73.14,29.37C69.66,12.71,56.02.9,39.09.08c-11.62-.73-21.51,3.57-29.29,12.36C-.37,23.88-2.2,40.08,5.03,54.09c-.55,1.74-1.01,3.57-1.46,5.31l-3.11,11.35-.46,3.3,3.48-.55,4.12-1.01c4.21-1.1,8.42-2.2,12.63-3.39.27-.09.37,0,.64.09,6.59,3.39,13.82,4.58,21.33,3.57,9.79-1.28,18.86-6.77,24.81-15.01,5.86-8.33,8.06-18.67,6.13-28.38Zm-31.12,35.24c-6.59,1.1-12.91,0-18.76-3.3-1.1-.64-2.01-.82-3.3-.46-2.75.82-5.49,1.46-8.24,2.2-.18,0-.37,0-.82.09.82-3.11,1.65-6.13,2.56-9.06.18-.92.18-1.56-.37-2.47-10.89-17.58-.27-40.46,20.23-43.39,15.56-2.11,29.84,8.7,32.13,24.35,2.2,15.1-8.33,29.47-23.43,32.04Z"/>
      <path class="cls-1" d="m54.56,45.3c.09,2.38-.55,4.39-2.65,5.86-2.84,1.92-5.86,2.2-9.06,1.37-8.33-2.38-14.46-7.6-19.31-14.46-1.65-2.38-3.11-4.76-3.57-7.69-.55-3.57.55-6.59,3.2-8.88.73-.64,1.83-.73,2.75-1.1,2.01.27,2.11.37,2.93,2.2.73,1.83,1.46,3.75,2.29,5.49.46,1.1.46,1.92-.18,2.84-.64.73-1.19,1.46-1.83,2.11-.46.55-.64,1.1-.27,1.74,2.84,4.76,6.87,8.33,12.08,10.25.37.09,1.19-.09,1.46-.46.92-.92,1.74-2.01,2.47-3.02.64-.82,1.28-1.1,2.11-.64,2.29,1.1,4.58,2.11,6.87,3.3.37.18.73.73.73,1.1Z"/>
    </g>
  </g>
</svg>
