<?xml version="1.0" encoding="UTF-8"?>
<svg id="Capa_2" data-name="Capa 2" xmlns="http://www.w3.org/2000/svg" viewBox="0 0 72.59 72.16">
  <defs>
    <style>
      .cls-1 {
        fill: #c4c4c4;
      }
    </style>
  </defs>
  <g id="Capa_1-2" data-name="Capa 1">
    <path class="cls-1" d="m72.59,36.27c0,18.1-13.24,33.11-30.57,35.87v-25.29h.35c2.61,0,5.22,0,7.82,0,.22,0,.33-.06.33-.29,0-.17.04-.33.07-.5.22-1.44.45-2.88.67-4.32.23-1.48.45-2.95.68-4.43.05-.33.09-.65.14-1.03h-10.07v-.36c0-2.08,0-4.15,0-6.23,0-.5.03-1.01.11-1.51.28-1.67,1.11-2.97,2.67-3.72.86-.41,1.78-.6,2.72-.6,1.56-.01,3.12-.01,4.68,0,.28,0,.34-.09.34-.35,0-2.77,0-5.53,0-8.3,0-.04,0-.09,0-.13.01-.16-.07-.22-.21-.24-.48-.07-.96-.16-1.44-.21-1.44-.14-2.87-.28-4.31-.39-1.46-.1-2.92-.13-4.38.05-1.6.19-3.14.59-4.6,1.28-2.04.97-3.67,2.41-4.85,4.33-1.41,2.3-2.03,4.85-2.08,7.53-.06,2.84-.01,5.68-.01,8.51v.35h-8.88c-.36,0-.36,0-.36.35,0,3.29,0,6.58,0,9.87,0,.27.07.34.34.34,2.86-.01,5.71,0,8.57,0h.34v25.31C13.89,69.55.93,55.5,0,38.25v-3.96C.99,15.81,15.8.99,34.29,0h3.96c19.14,1.03,34.34,16.87,34.34,36.27Z"/>
  </g>
</svg>
