<?xml version="1.0" encoding="UTF-8"?>
<svg id="Capa_2" data-name="Capa 2" xmlns="http://www.w3.org/2000/svg" viewBox="0 0 1313 255.61">
  <defs>
    <style>
      .cls-1 {
        fill: #212121;
      }

      .cls-2 {
        fill: #c4c4c4;
      }
    </style>
  </defs>
  <g id="Capa_1-2" data-name="Capa 1">
    <g>
      <rect class="cls-2" y="193.48" width="1313" height="13"/>
      <g>
        <path class="cls-1" d="m170.67,163.13c-.22,0-.33-.29-.33-.87-.87-3.42-2.37-5.75-4.48-6.99-4.15-2.84-8.55-4.66-13.21-5.46-3.57-.8-8.23-1.2-13.98-1.2-5.24,0-13.36.51-24.35,1.53-10.99,1.02-19.95,2.51-26.86,4.48-4.51,1.09-8.92,2.77-13.21,5.02-.29.07-.58.11-.87.11-.44,0-.76-.36-.98-1.09,0-.22-.07-.44-.22-.66-.87-1.16-1.31-2.4-1.31-3.71,0-.22.05-.76.16-1.64s.76-1.86,1.97-2.95,2.38-2,3.55-2.73c10.04-16.16,23.29-35.34,39.74-57.54,16.45-22.2,29.63-38.76,39.53-49.68v-.44c0-.29-.04-.51-.11-.66-4.66-1.82-9.43-3.2-14.3-4.15l-5.57-.87c-2.84-.36-4.55-.55-5.13-.55h-.33c-1.96-.15-3.86-.22-5.68-.22-3.86,0-7.68.26-11.46.76l-.22-.11c-.15.07-.31.13-.49.16-.18.04-.31.13-.38.27,2.69.95,5.31,2.26,7.86,3.93,1.75,1.24,2.66,3.2,2.73,5.9,0,.73-.11,1.17-.33,1.31-.22,0-.4-.22-.55-.66-.44-.8-.95-1.35-1.53-1.64-1.97-.66-6.3-1.42-12.99-2.29-5.31-.73-8.3-1.2-8.95-1.42-1.38-.07-2.07-.87-2.07-2.4,0-.66-.11-1.24-.33-1.75-.44-1.16-.65-2.26-.65-3.28,0-2.4,1.09-4.26,3.28-5.57,4.15-1.97,9.97-2.95,17.47-2.95,5.9,0,11.72.69,17.47,2.07,6.4,1.31,12.67,3.2,18.78,5.68,10.77,4.37,16.16,9.57,16.16,15.61,0,1.38-.07,2.29-.22,2.73-.15.44-.33.66-.55.66s-.4-.29-.55-.87v-.22c-.87-2.77-1.89-4.15-3.06-4.15-.58,0-1.13.26-1.64.76-2.48,3.2-5.68,7.21-9.61,12.01-6.77,8.3-16.67,21.15-29.7,38.54-13.03,17.4-24.53,32.98-34.5,46.73,5.39-1.31,9.39-2.04,12.01-2.18,12.45-1.24,22.67-1.86,30.68-1.86,7.42,0,12.96.51,16.6,1.53,5.24,1.31,10.34,3.46,15.29,6.44,5.46,3.28,8.19,7.72,8.19,13.32,0,1.24-.05,2.07-.16,2.51-.11.44-.31.66-.6.66Z"/>
        <path class="cls-1" d="m223.3,161.82c-.58,0-1.17-.11-1.75-.33-.58-.22-1.35-.62-2.29-1.2-3.79-2.33-5.97-4.77-6.55-7.32-.37-1.09-.55-2.55-.55-4.37,0-3.35.58-7.5,1.75-12.45,0-.22.04-.44.11-.65.65-2.98.98-4.91.98-5.79,0-.44-.09-.69-.27-.76-.18-.07-.42-.11-.71-.11h-.33c-.29,0-.62.09-.98.27-.37.18-.93.62-1.69,1.31-.76.69-1.84,1.71-3.22,3.06-1.38,1.35-3.18,3.19-5.4,5.51-2.22,2.33-4.97,5.21-8.24,8.63-3.06,3.13-5.44,5.33-7.15,6.61-1.71,1.27-3.11,1.91-4.2,1.91h-.66c-.36,0-.94-.34-1.75-1.04-.8-.69-1.56-1.51-2.29-2.46l-3.28-3.06.33-2.73c.51-3.64,2.44-7.88,5.79-12.72,3.35-4.84,7.17-9.23,11.46-13.16,4.29-3.93,8.19-6.33,11.68-7.21.95-.22,1.82-.33,2.62-.33,3.35,0,6.26,1.71,8.74,5.13.44.73.98,1.49,1.64,2.29.51.51.91.95,1.2,1.31.51.44,1.02,1,1.53,1.69.51.69.98,1.36,1.42,2.02.51.73.85,1.35,1.04,1.86.18.51.27,1.27.27,2.29l-.11,1.97c0,.95-.09,2.46-.27,4.53-.18,2.07-.38,4.13-.6,6.17-.44,1.97-.73,3.91-.87,5.84-.15,1.93-.22,3.26-.22,3.99l.33,3.06c.58-.36,1.13-.69,1.64-.98,1.6-1.02,3.2-2.13,4.8-3.33,1.6-1.2,3.6-3.02,6.01-5.46,2.4-2.44,5.71-5.99,9.94-10.65,14.34-15.79,21.98-23.87,22.93-24.24h.98c1.09,0,2.29.66,3.6,1.97,1.31,1.31,1.97,2.66,1.97,4.04,0,1.89-1.79,6.99-5.35,15.29-.07.15-.15.29-.22.44-2.62,6.19-3.93,9.72-3.93,10.59,0,.15.04.22.11.22,1.16-1.46,2.11-2.69,2.84-3.71,4.8-5.6,9.83-10.61,15.07-15.01,5.24-4.4,8.84-6.61,10.81-6.61,1.67,0,3.28.95,4.8,2.84,1.53,1.89,2.51,4.08,2.95,6.55l.11.87c0,1.17-.29,1.75-.87,1.75-.95,0-2.15-1.49-3.6-4.48-.15-.51-.31-.98-.49-1.42-.18-.44-.42-.95-.71-1.53-.15-.07-.29-.11-.44-.11-1.31,0-3.93,1.73-7.86,5.19-3.93,3.46-7.64,7.37-11.14,11.74-3.71,4.44-6.61,7.88-8.68,10.32-2.07,2.44-3.57,4.17-4.48,5.19-.91,1.02-1.51,1.64-1.8,1.86-.29.15-.55.26-.76.33-.22.07-.44.11-.66.11-.51,0-1.17-.15-1.97-.44-3.13-1.24-4.7-2.69-4.7-4.37,0-2.98,3.17-11.46,9.5-25.44l1.75-3.93-10.05,11.79c-8.23,9.97-14.41,16.92-18.56,20.85-4.15,3.93-7.46,5.9-9.94,5.9l-1.09.11Zm-37.23-18.89l10.05-10.05c2.91-2.98,5.19-5.28,6.82-6.88,1.64-1.6,2.95-2.75,3.93-3.44.98-.69,1.95-1.22,2.89-1.58l3.17-1.42h-1.96c-2.69,0-6.04,1.68-10.05,5.02-4,3.35-7.9,7.75-11.68,13.21-.8,1.38-1.53,2.55-2.18,3.49-.51.87-.84,1.42-.98,1.64Z"/>
        <path class="cls-1" d="m318.18,167.28c-1.46,0-2.73-.22-3.82-.65-.66-.15-1.55-.55-2.68-1.2-1.13-.66-2.2-1.38-3.22-2.18-1.68-1.02-2.88-1.93-3.6-2.73-.73-.8-1.38-1.93-1.96-3.38-.95-2.33-1.6-5.02-1.97-8.08l-.22-3.38c0-7.86,2.37-18.22,7.1-31.06,4.73-12.85,11.65-27.5,20.75-43.95,8.44-15.65,16.29-28.21,23.53-37.67,7.24-9.46,12.9-14.78,16.98-15.94h1.64c1.96,0,3.82.95,5.57,2.84.73.8,1.26,1.44,1.58,1.91.33.47.49,1.11.49,1.91l-.11,1.42c-.44,6.48-4.99,17.65-13.65,33.52-5.39,9.61-12.5,20.8-21.35,33.58-8.84,12.78-17.27,24-25.28,33.68-1.67,2.04-2.91,3.59-3.71,4.64-.8,1.06-1.35,2-1.64,2.84-.29.84-.55,1.88-.76,3.11-1.31,5.39-1.97,10.26-1.97,14.63,0,3.71.47,6.66,1.42,8.84.29.87,1.05,1.31,2.29,1.31,1.16,0,2.8-.36,4.91-1.09,8.3-1.89,18.71-9.79,31.23-23.69,1.82-2.11,3.09-3.17,3.82-3.17.66,0,.98.69.98,2.07,0,.58-.13,1.27-.38,2.07-.26.8-.6,1.49-1.04,2.07-1.89,3.57-5.12,7.66-9.66,12.28-4.55,4.62-9.16,8.54-13.81,11.74-4.08,2.47-7.9,3.71-11.46,3.71Zm.11-50.55c3.28-4.51,6.15-8.44,8.63-11.79,12.08-16.38,21.31-29.81,27.68-40.29,6.37-10.48,11.08-19.83,14.14-28.06,2.26-6.33,3.38-10.41,3.38-12.23,0-.51-.11-.8-.33-.87-.29,0-1.04.62-2.24,1.86-1.2,1.24-2.6,2.78-4.2,4.64-1.6,1.86-3.17,3.77-4.69,5.73-5.53,7.28-11.74,17.2-18.62,29.75s-12.76,24.51-17.63,35.87c-1.89,4.3-3.4,7.84-4.53,10.65-1.13,2.8-1.69,4.39-1.69,4.75h.11Z"/>
        <path class="cls-1" d="m415.14,185.4c-1.89,0-4.04-.62-6.44-1.86-2.18-1.09-3.66-2.11-4.42-3.06-.76-.95-1.15-2.33-1.15-4.15v-.87c0-3.28,1.02-7.3,3.06-12.07,2.04-4.77,4.77-9.41,8.19-13.92l2.18-3.06c-1.6-5.02-2.77-9.01-3.49-11.96-.73-2.95-1.27-5.55-1.64-7.81l-.11-3.28c-14.56,10.56-26.64,18.05-36.25,22.49-3.86,1.68-7.17,2.51-9.94,2.51-3.86,0-7.35-1.75-10.48-5.24-1.75-1.67-2.95-3.22-3.6-4.64-.66-1.42-.98-3.15-.98-5.19,0-5.82,2.99-11.39,8.95-16.71,2.84-2.47,5.46-3.71,7.86-3.71s4.59,1.13,6.77,3.38c.95,1.02,1.55,1.78,1.8,2.29.25.51.38,1.2.38,2.07,0,1.24-.29,2.38-.87,3.44-.58,1.06-1.64,2.24-3.17,3.55-1.82,1.68-3.77,2.99-5.84,3.93-2.08.95-3.8,1.42-5.19,1.42-.66,0-1.2-.15-1.64-.44-.29-.29-.58-.44-.87-.44-.66,0-1.17,1.06-1.53,3.17-.22,1.02-.33,1.93-.33,2.73,0,1.82.51,3.02,1.53,3.6.58.29,1.35.44,2.29.44,2.04,0,4.66-.47,7.86-1.42,3.42-1.24,8.48-3.67,15.18-7.32,6.7-3.64,13.19-7.39,19.49-11.25,6.3-3.86,10.5-6.77,12.61-8.74,1.67-2.04,3.42-3.06,5.24-3.06.22.07.44.15.66.22.87.15,1.93.51,3.17,1.09,1.67.73,3.07,1.57,4.2,2.51,1.13.95,1.69,1.71,1.69,2.29l-.11.22c-.15.15-.29.26-.44.33-.15.07-.29.11-.44.11l-.87-.11c-.87-.44-1.68-.66-2.4-.66-1.31,0-2.55.69-3.71,2.07-2.33,2.4-3.49,5.86-3.49,10.37,0,1.09.16,2.53.49,4.31.33,1.78.67,3.4,1.04,4.86.36,1.46.69,2.37.98,2.73h.11c.22,0,.69-.25,1.42-.76.73-.51,1.56-1.16,2.51-1.97,3.06-2.33,6.84-4.97,11.36-7.92,4.51-2.95,8.23-5.22,11.14-6.82,2.91-1.6,5.09-2.4,6.55-2.4.8,0,1.42.22,1.86.66.36.37.55.73.55,1.09,0,.87-1.57,2.22-4.7,4.04-3.42,2.11-7.15,4.68-11.19,7.7-4.04,3.02-7.63,5.88-10.75,8.57-3.13,2.69-5.06,4.66-5.79,5.9,0,.15.07.73.22,1.75.14,1.02.4,2.29.76,3.82.73,2.99,1.09,6.08,1.09,9.28,0,3.57-.4,6.99-1.2,10.26-.8,3.28-1.97,5.93-3.49,7.97-1.75,2.4-3.97,3.6-6.66,3.6Zm-55.47-56.45c.14,0,.49-.15,1.04-.44.55-.29,1.15-.62,1.8-.98,1.38-.87,2.87-2.09,4.48-3.66,1.6-1.56,2.73-2.89,3.38-3.99.14-.29.22-.51.22-.65s-.07-.25-.22-.33h-.22c-.8,0-1.95.49-3.44,1.47-1.49.98-2.82,2.17-3.99,3.55-2.11,2.84-3.17,4.48-3.17,4.91,0,.07.04.11.11.11Zm50.99,51.97c.44,0,1.05-.33,1.86-.98,1.6-1.38,2.89-3.55,3.88-6.5.98-2.95,1.47-6.21,1.47-9.77l-.33-6.11c-.44.95-.87,1.86-1.31,2.73-2.04,4-3.64,7.37-4.8,10.1-1.17,2.73-1.75,5.26-1.75,7.59,0,2.04.33,3.02.98,2.95Z"/>
        <path class="cls-1" d="m526.4,165.86c-1.89,0-3.79-.25-5.68-.76-12.16-3.35-18.23-10.85-18.23-22.49,0-7.06,3.06-19.8,9.17-38.22,1.16-3.28,2.4-6.48,3.71-9.61.14-.29.22-.55.22-.76,0-.36-.22-.55-.65-.55l-.44.11c-.65.15-1.35.22-2.07.22-1.17,0-1.86-.51-2.07-1.53-.15-.58-.44-1.13-.87-1.64-.87-1.16-1.31-2.26-1.31-3.28,0-1.31.73-2.51,2.18-3.6,3.13-1.89,6.48-3.06,10.04-3.49,1.46-.22,2.47-.98,3.06-2.29,8.01-15.58,18.45-29.81,31.34-42.69l-.11-.22-3.71.44c-8.88,1.09-14.74,2-17.58,2.73-3.49.95-5.75,1.42-6.77,1.42-.22,0-.47-.04-.76-.11-.29-.07-.49-.34-.6-.82-.11-.47-.31-.87-.6-1.2-.29-.33-.49-.71-.6-1.15-.11-.44-.16-.84-.16-1.2,0-2.47,2.33-4.51,6.99-6.11,6.55-2.33,13.28-3.78,20.2-4.37,6.41-.87,12.78-1.31,19.11-1.31,6.91,0,13.83.51,20.75,1.53,7.35.95,14.3,3.24,20.86,6.88,3.64,2.04,5.46,4.44,5.46,7.21v.33c0,.37.04.69.11.98.07.29.13.53.16.71.04.18.05.38.05.6,0,.58-.16,1.13-.49,1.64-.33.51-.71.76-1.15.76-.44-.15-.66-.51-.66-1.09v-.55c0-.73-.22-1.31-.66-1.75-.87-.87-1.49-1.31-1.86-1.31-6.92-4-16.89-6.01-29.92-6.01-4.44,0-8.92.15-13.43.44-1.02,0-1.96.51-2.84,1.53-1.17,1.53-2.37,2.37-3.6,2.51-.15,0-.29.07-.44.22l-.76.76c-9.1,10.12-17.14,21.91-24.13,35.38l-1.64,2.95c-.22.44-.33.84-.33,1.2l8.19-.33c7.21,0,14.41.11,21.62.33,9.24.15,15.61.91,19.11,2.29,1.46.51,2.18,1.93,2.18,4.26,0,.73-.11,1.2-.33,1.42-.22.22-.69.33-1.42.33l-1.42-.11-4.91-.11c-3.28,0-6.73.15-10.37.44-10.26.66-20.49,1.78-30.68,3.39l-6.88.87c-.95.07-1.64.58-2.07,1.53-3.86,8.59-8.23,21.44-13.1,38.54-1.89,5.82-2.84,11.79-2.84,17.91.15,5.02,1.46,7.53,3.93,7.53,2.76,0,5.5-.29,8.19-.87,12.37-2.69,25.48-6.95,39.31-12.77,7.57-3.2,12.74-4.8,15.5-4.8s4.26.55,4.26,1.64c0,.51-.29,1.17-.87,1.97-1.6,2.4-3.68,4.3-6.22,5.68-14.7,8.15-28.43,13.83-41.16,17.03-3.49.95-6.59,1.42-9.28,1.42Z"/>
        <path class="cls-1" d="m595.96,120.11c1.31-2.47,3.13-4.93,5.46-7.37,2.33-2.44,4.15-3.66,5.46-3.66.22,0,.44.02.65.05.22.04.44.13.66.27.51.22,1.04.58,1.58,1.09.55.51,1.02.98,1.42,1.42.4.44.6.76.6.98,0,.07-.29.49-.87,1.26-.58.76-1.28,1.66-2.08,2.67-4.88,5.75-7.32,11.65-7.32,17.69,0,2.48.4,5.06,1.2,7.75.29,1.17.58,2.13.87,2.89.29.76.47,1.18.55,1.26l.11.11c.29,0,1.29-.47,3-1.42,1.71-.95,3.73-2.15,6.06-3.6,2.55-1.53,4.77-2.82,6.66-3.88,1.89-1.05,2.95-1.58,3.17-1.58.66,0,1.27.24,1.86.71.58.47.87.97.87,1.47l-.11.33c0,.22-.36.62-1.09,1.2-.73.58-1.96,1.51-3.71,2.78-1.75,1.27-4.19,3-7.32,5.19l-7.42,4.91.22,7.42c0,2.26-.02,3.99-.05,5.19-.04,1.2-.11,2.22-.22,3.06-.11.84-.31,1.73-.6,2.67-1.17,3.93-2.73,6.4-4.7,7.42-.8.36-1.67.55-2.62.55-1.46,0-3.28-.51-5.46-1.53-2.25-1.24-4.04-2.48-5.35-3.71-.66-.87-1.07-1.57-1.26-2.07-.18-.51-.27-1.31-.27-2.4,0-1.46.37-3.13,1.09-5.02.8-1.67,2.2-3.73,4.2-6.17,2-2.44,3.73-4.24,5.19-5.4.51-.36.89-.73,1.15-1.09.25-.36.38-.84.38-1.42,0-1.24-.51-3.42-1.53-6.55-1.6-5.46-2.4-9.64-2.4-12.56,0-.73.04-1.35.11-1.86.22-3.42.84-6.44,1.86-9.06Zm-2.18,54.48c.51,0,1.09-.37,1.75-1.09,2.18-3.06,3.28-7.21,3.28-12.45v-2.51c-1.97,2.48-3.57,4.73-4.8,6.77-1.24,2.04-1.86,4-1.86,5.9v.44c0,1.82.55,2.8,1.64,2.95Z"/>
        <path class="cls-1" d="m594.54,255.61c-.07,0-.44-.18-1.09-.55-.58-.37-1.31-.73-2.18-1.09-.87-.44-1.6-.89-2.18-1.37-.58-.47-.87-.86-.87-1.15v-.11c0-1.09.96-5.68,2.89-13.76,1.93-8.08,3.99-16.56,6.17-25.44,2.48-9.97,4.19-17.07,5.13-21.29,2.4-10.7,5.5-21.47,9.28-32.32,3.79-10.85,8.88-23.58,15.29-38.22,1.75-4.22,3.07-7.21,3.99-8.95.91-1.75,1.69-2.62,2.35-2.62l.33.11c.29,0,.62.11.98.33.36.22.69.47.98.76l1.64,1.42c-.51,1.68-1.02,3.24-1.53,4.7-.87,2.84-1.84,5.73-2.89,8.68-1.06,2.95-2.53,6.57-4.42,10.86-3.2,8.45-6.97,18.87-11.3,31.28-4.33,12.41-7.19,21.53-8.57,27.35,3.93-9.9,8.24-19.71,12.94-29.43,4.7-9.72,9.95-18.32,15.78-25.82,4.88-6.33,9.72-11.37,14.52-15.12,4.8-3.75,8.77-5.62,11.9-5.62,1.02,0,1.89.22,2.62.66,4.29,1.97,6.44,5.57,6.44,10.81,0,4.44-1.58,9.15-4.75,14.14-3.17,4.99-6.79,8.57-10.86,10.76-2.62,1.24-5.5,2.2-8.63,2.89-3.13.69-5.93,1.04-8.41,1.04-2.18,0-3.86-.29-5.02-.87-.15-.15-.29-.25-.44-.33-.29-.15-.53-.27-.71-.38-.18-.11-.31-.16-.38-.16-.58.66-1.96,3-4.15,7.04-2.18,4.04-4.48,8.32-6.88,12.83-4.66,9.83-9.68,22.33-15.07,37.51-5.39,15.18-9.03,26.77-10.92,34.78-.36,1.82-.66,3.22-.87,4.2-.22.98-.4,1.64-.55,1.97-.15.33-.33.49-.55.49Zm42.04-102.31c.73,0,2.44-.4,5.13-1.2,6.33-1.67,11.77-4.7,16.32-9.06,4.55-4.37,7.59-9.35,9.12-14.96.15-.73.22-1.51.22-2.35v-1.8c-.07-.44-.22-.73-.44-.87-.22-.15-.51-.22-.87-.22h-1.2c-6.7,1.75-15.25,9.9-25.66,24.46-.95,1.46-1.73,2.73-2.35,3.82-.62,1.09-.93,1.71-.93,1.86,0,.22.22.33.66.33Z"/>
        <path class="cls-1" d="m683.31,159.09c-.58,0-1.09-.07-1.53-.22-.73-.36-1.64-1-2.73-1.91-1.09-.91-2.13-1.87-3.11-2.89-.98-1.02-1.62-1.82-1.91-2.4-.51-1.16-.76-2.47-.76-3.93,0-2.18.51-4.62,1.53-7.32.58-1.97,1.35-4.04,2.29-6.22.95-2.18,1.84-4.08,2.68-5.68.84-1.6,1.44-2.47,1.8-2.62l.55-.11c.58,0,1.24.26,1.96.76.73.51,1.35,1.13,1.86,1.86.22.36.33.87.33,1.53,0,.58-.18,1.57-.55,2.95-.37,1.38-1.02,3.46-1.96,6.22-.87,2.62-1.6,5.01-2.18,7.15-.58,2.15-.87,3.55-.87,4.2v1.97c3.06-.29,6.57-1.42,10.54-3.38,3.97-1.97,9.73-5.39,17.31-10.26,2.55-1.75,4.84-3.17,6.88-4.26,2.04-1.09,3.2-1.64,3.49-1.64,1.02,0,1.56.51,1.64,1.53,0,.29-.07.62-.22.98-.22.37-1.22,1.29-3,2.78-1.78,1.49-3.9,3.22-6.33,5.19-2.44,1.97-4.79,3.82-7.04,5.57-2.26,1.75-3.97,3.02-5.13,3.82-6.92,4.22-12.08,6.33-15.5,6.33Zm5.79-36.47h-.33c-.73,0-1.49-.27-2.29-.82-.8-.55-1.35-1.11-1.64-1.69l-.11-.33c0-.8.53-2.38,1.58-4.75,1.05-2.36,2.17-4.6,3.33-6.72.22-.51.55-.85.98-1.04.44-.18,1.02-.27,1.75-.27.87.15,1.75.51,2.62,1.09.87.58,1.49,1.24,1.86,1.97v.11c0,.65-.55,1.98-1.64,3.99-1.09,2-2.26,3.91-3.49,5.73-1.24,1.82-2.11,2.73-2.62,2.73Z"/>
        <path class="cls-1" d="m714.53,157.67c-.22,0-.91-.51-2.07-1.53-.22-.15-.44-.29-.66-.44-1.09-.73-1.91-1.38-2.46-1.97-.55-.58-.82-1.27-.82-2.07,0-1.46.91-3.82,2.73-7.1,3.57-7.13,6.24-12.14,8.03-15.01,1.78-2.88,3.11-4.31,3.99-4.31.44,0,.98.27,1.64.82s1.24,1.17,1.75,1.86c.51.69.76,1.29.76,1.8,0,.87-.29,1.89-.87,3.06-.29.44-.55,1.02-.76,1.75h.11c.44,0,1.6-.65,3.49-1.97,2.4-1.75,4.77-3.22,7.1-4.42,2.33-1.2,4.04-1.8,5.13-1.8.73,0,1.4.18,2.02.55.62.37,1.37.95,2.24,1.75,1.09.95,1.87,1.95,2.35,3,.47,1.06.71,2.39.71,3.99,0,1.31-.11,2.88-.33,4.7-.44,3.2-.66,5.61-.66,7.21,0,1.97.33,2.91.98,2.84.66,0,2.26-.87,4.8-2.62,2.55-1.75,5.22-3.75,8.03-6.01,2.8-2.26,5.11-4.29,6.93-6.11,1.46-1.53,2.62-2.29,3.49-2.29.73,0,1.24.47,1.53,1.42v.44c0,1.6-1.68,4.15-5.02,7.64-3.86,4.37-7.44,7.81-10.76,10.32-3.31,2.51-5.88,3.77-7.7,3.77l-.76-.11c-.73-.22-1.62-.73-2.67-1.53-1.06-.8-2.06-1.71-3-2.73-.95-1.02-1.57-1.93-1.86-2.73-.29-1.02-.44-2.73-.44-5.13,0-2.91.22-6.04.66-9.39l.11-1.2c0-.51-.18-.76-.55-.76-.73,0-2.44.95-5.13,2.84-2.77,1.82-5.84,4.35-9.23,7.59-3.38,3.24-6.35,6.39-8.9,9.44-1.02,1.31-1.89,2.38-2.62,3.22-.73.84-1.16,1.26-1.31,1.26Z"/>
        <path class="cls-1" d="m774.48,157.56l-1.09-.11c-.58-.15-1.11-.36-1.58-.66-.47-.29-1.02-.73-1.64-1.31-.62-.58-1.44-1.42-2.46-2.51-.8-.95-1.38-1.69-1.75-2.24s-.58-1.13-.66-1.75c-.07-.62-.11-1.51-.11-2.68,0-6.26,3.17-12.96,9.5-20.09,3.57-3.93,6.48-5.9,8.74-5.9,1.09,0,2.18.66,3.28,1.97.87,1.17,1.31,2.18,1.31,3.06,0,.73-.33,1.27-.98,1.64l-1.09.87c.73.95,1.35,1.71,1.86,2.29.66.73,1.16,1.42,1.53,2.07.36.66.69,1.71.98,3.17.14,1.09.22,2.15.22,3.17,0,1.09-.07,2.18-.22,3.28-.95,4-3.09,7.63-6.44,10.86-3.35,3.24-6.48,4.86-9.39,4.86Zm-1.97-7.1c.29,0,.73-.13,1.31-.38.58-.25,1.16-.6,1.75-1.04,5.75-4.44,8.81-9.28,9.17-14.52,0-1.02-.02-1.76-.05-2.24-.04-.47-.13-.8-.27-.98-.15-.18-.4-.31-.76-.38-.29-.07-.51-.13-.66-.16-.15-.04-.29-.05-.44-.05-.51.07-1.13.53-1.86,1.36-.73.84-1.71,2.13-2.95,3.88-2.91,4.66-4.84,8.77-5.79,12.34l-.22,1.53c0,.29.05.47.16.55.11.07.31.11.6.11Z"/>
        <path class="cls-1" d="m805.38,205.49c-1.6,0-3.46-.8-5.57-2.4-3.13-1.97-4.69-4.66-4.69-8.08v-.87c1.38-9.03,7.61-19.98,18.67-32.87,1.75-1.89,2.93-3.26,3.55-4.09.62-.84.93-1.55.93-2.13,0-.36-.07-.73-.22-1.09-.15-1.31-.98-1.97-2.51-1.97s-3.79.47-6.99,1.42c-.29.07-.58.15-.87.22-3.28.95-5.53,1.42-6.77,1.42-.73,0-1.31-.16-1.75-.49-.44-.33-.98-.82-1.64-1.47-.15-.15-.29-.29-.44-.44-.73-.73-1.38-1.46-1.96-2.18-.58-.73-.87-1.24-.87-1.53s.55-.98,1.64-2.07,2.44-2.33,4.04-3.71c1.53-1.38,3.38-3.13,5.57-5.24,2.18-2.11,4.38-4.22,6.61-6.33,2.22-2.11,4.09-3.91,5.62-5.41,1.53-1.49,2.29-2.27,2.29-2.35-.07-.07-.29-.11-.66-.11-.8,0-1.96.13-3.49.38-1.53.26-2.93.55-4.2.87-1.27.33-2.06.6-2.35.82-.29.22-.55.33-.76.33-.44,0-1.09-.36-1.97-1.09-.95-1.16-1.42-2-1.42-2.51,0-.15.25-.38.76-.71.51-.33,1.2-.56,2.07-.71,1.16-.36,2.73-.75,4.7-1.15,1.96-.4,3.88-.73,5.73-.98,1.86-.25,3.11-.38,3.77-.38,1.31,0,2.58.75,3.82,2.24,1.24,1.49,1.86,2.93,1.86,4.31l-.11.66c-.58,2.04-4.11,6.7-10.59,13.98l-5.35,5.9c.36,0,.69.04.98.11.65,0,1.25.07,1.8.22.55.15,1.16.46,1.86.93.69.47,1.66,1.26,2.89,2.35l3.06,2.73c6.04-5.97,10.84-10.37,14.41-13.21,3.57-2.84,6.41-4.26,8.52-4.26.8,0,1.46.26,1.96.76.36.36.55.69.55.98s-.24.66-.71,1.09c-.47.44-1.25,1.06-2.35,1.86-4.15,2.99-9.28,7.83-15.4,14.52l-4.37,4.69v4.48c-.66,7.79-2.62,15.92-5.9,24.4-3.28,8.48-6.62,14.1-10.04,16.87-1.24.87-2.48,1.31-3.71,1.31Zm-1.75-8.95c.14,0,.6-.55,1.36-1.64.76-1.09,1.66-2.44,2.68-4.04.58-1.24,1.44-3.15,2.57-5.73,1.13-2.58,2.18-5.13,3.17-7.64.98-2.51,1.58-4.31,1.8-5.4.15-.15.22-.26.22-.33,0-.15-.07-.22-.22-.22-.22.15-.98,1.29-2.29,3.44-1.31,2.15-2.69,4.64-4.15,7.48-1.24,2.55-2.42,5.19-3.55,7.92-1.13,2.73-1.69,4.64-1.69,5.73v.33c0,.07.04.11.11.11Z"/>
        <path class="cls-1" d="m847.63,152.43c-.73,0-1.37-.15-1.91-.44-.55-.29-1.29-.84-2.24-1.64-1.67-1.31-2.8-2.44-3.38-3.38-.58-.95-.87-2.33-.87-4.15,0-3.06,1.24-6.77,3.71-11.14s5.33-8.21,8.57-11.52c3.24-3.31,5.95-4.97,8.13-4.97,1.82,0,3.89,1,6.22,3,2.33,2,4.26,4.42,5.79,7.26l1.42,3.06c-.66,2.77-1.11,5.02-1.36,6.77-.26,1.75-.38,3.68-.38,5.79v.87c0,1.31.11,2.15.33,2.51.22.37.58.55,1.09.55l.66.11c2.47,0,6.62-2.44,12.45-7.32,3.78-3.13,6.26-4.7,7.42-4.7.8,0,1.2.62,1.2,1.86,0,.58-.11,1.13-.33,1.64-.22.51-.69,1.2-1.42,2.07-.73.87-1.82,2.07-3.28,3.6-3.06,3.28-5.5,5.53-7.32,6.77-1.82,1.24-3.57,1.86-5.24,1.86-1.38,0-2.55-.22-3.49-.66-.95-.44-2.29-1.42-4.04-2.95-1.75-1.53-2.95-3.02-3.6-4.48l-.76-2.51c-.22.22-.4.4-.55.55-3.35,3.35-6.26,6.02-8.73,8.03-2.48,2-4.8,3.15-6.99,3.44l-1.09.11Zm-1.64-5.68c4.22-2.26,9.32-6.62,15.29-13.1,1.09-1.24,2.11-2.57,3.06-3.99.94-1.42,1.75-2.67,2.4-3.77.66-1.09.98-1.78.98-2.07,0-.15-.27-.38-.82-.71s-1.2-.62-1.96-.87c-.76-.25-1.4-.38-1.91-.38-1.53,0-3.53,1.33-6.01,3.99-2.48,2.66-4.75,5.73-6.82,9.23-2.07,3.49-3.4,6.62-3.99,9.39l-.22,2.29Z"/>
        <path class="cls-1" d="m977.35,175.36c-.65,0-1.27-.26-1.86-.76-.58-.51-1.29-1.53-2.13-3.06-.84-1.53-1.98-3.82-3.44-6.88,0-6.84.27-13.27.82-19.27s2.04-14.34,4.48-25c2.44-10.66,6.46-25.86,12.07-45.59,4.44-16.6,7.44-28.44,9.01-35.54,1.56-7.1,2.35-12.76,2.35-16.98,0-1.53-.02-2.69-.05-3.49-.04-.8-.16-1.51-.38-2.13-.22-.62-.51-1.33-.87-2.13-2.33-4.29-5.97-6.44-10.92-6.44-6.33,0-14.2,3.26-23.58,9.77-9.39,6.52-16.05,13.41-19.98,20.69-1.02,1.97-1.66,3.57-1.91,4.8-.26,1.24-.38,2.66-.38,4.26,0,.66-.04,1.38-.11,2.18,0,.95.13,1.77.38,2.46.25.69.75,1.58,1.47,2.67,2.55,4.88,4.99,7.97,7.32,9.28.36.29.73.6,1.09.93.36.33.55.67.55,1.04,0,.95-.4,1.38-1.2,1.31-1.17,0-2.82-.96-4.97-2.89-2.15-1.93-3.91-4.2-5.3-6.82-1.82-4.15-2.73-8.59-2.73-13.32,0-3.49.55-6.7,1.64-9.61,2.55-6.33,7.35-12.52,14.41-18.56,7.06-6.04,15.1-10.81,24.13-14.3,1.89-.87,3.47-1.42,4.75-1.64,1.27-.22,3.04-.33,5.3-.33,2.62,0,4.55.22,5.79.65,1.24.44,2.55,1.35,3.93,2.73,3.71,3.2,5.57,10.26,5.57,21.18.15,10.99-3.75,33.01-11.68,66.06-1.53,5.9-2.95,11.65-4.26,17.25-1.31,5.61-2.33,9.83-3.06,12.67-.87,4.3-1.75,8.9-2.62,13.81-.87,4.91-1.6,9.35-2.18,13.32-.58,3.97-.87,6.43-.87,7.37v.33c.22-.22.98-1.49,2.29-3.82,1.31-2.33,2.91-5.24,4.8-8.74,16.01-30.57,36.29-60.12,60.82-88.66,20.31-24.17,34.65-39.23,43.02-45.2,2.98-2.04,5.42-3.06,7.32-3.06,2.11,0,3.67,1.27,4.7,3.82.51,1.53.76,2.73.76,3.6s-.22,1.35-.66,1.42c-.37,0-.76-.25-1.2-.76-.37-.29-.76-.6-1.2-.93s-.98-.49-1.64-.49c-2.77,0-7.75,3.75-14.96,11.25-7.21,7.5-15.56,17.25-25.06,29.26s-19.24,25.11-29.21,39.31c-13.9,19.65-26.82,41.31-38.76,64.97-2.33,4.44-4.37,8.28-6.11,11.52s-2.77,5.08-3.06,5.51c-.73.65-1.53.98-2.4.98Z"/>
        <path class="cls-1" d="m1033.47,155.05c-1.17,0-2.26-.18-3.28-.55-1.46-.36-3.2-1.56-5.24-3.6-2.04-2.04-3.64-4.08-4.8-6.11-.73-1.97-1.09-4.22-1.09-6.77,0-2.04.29-4.08.87-6.11,1.31-3.35,3.4-6.77,6.28-10.26,2.88-3.49,5.7-6.04,8.46-7.64.36-.07.69-.18.98-.33.95-.51,1.75-.76,2.4-.76h.55c1.38,0,2.69.66,3.93,1.97,2.26,2.33,3.38,4.73,3.38,7.21,0,.66-.11,1.31-.33,1.97-1.02,3.28-3.55,6.59-7.59,9.94-4.04,3.35-7.44,5.02-10.21,5.02l-1.53-.22c-.37,0-.6.16-.71.49-.11.33-.2.86-.27,1.58,0,.07-.04.15-.11.22-.07.87-.11,1.68-.11,2.4,0,2.18.44,3.71,1.31,4.59.87.58,2.29.87,4.26.87,1.53,0,3.15-.15,4.86-.44,1.71-.29,3.22-.69,4.53-1.2,5.09-1.97,10.48-5.6,16.16-10.92,2.4-2.18,4.04-3.28,4.91-3.28.44,0,.66.33.66.98,0,1.31-1.42,3.48-4.26,6.5-2.84,3.02-5.99,5.88-9.44,8.57-3.46,2.69-6.32,4.37-8.57,5.02-2.18.58-4.19.87-6.01.87Zm-5.57-21.62c.36,0,1.24-.51,2.62-1.53,1.38-1.02,2.77-2.22,4.15-3.6,1.75-1.6,3.22-3.22,4.42-4.86,1.2-1.64,1.8-2.75,1.8-3.33l-.11-.22c0-.07-.02-.11-.05-.11-.04,0-.05-.02-.05-.05,0-.04-.04-.05-.11-.05-1.09,0-3.24,1.57-6.44,4.7-.87,1.09-1.8,2.28-2.78,3.55-.98,1.27-1.84,2.42-2.57,3.44-.73,1.02-1.09,1.68-1.09,1.97,0,.15.07.18.22.11Z"/>
        <path class="cls-1" d="m1074.42,167.28c-1.46,0-2.73-.22-3.82-.65-.66-.15-1.55-.55-2.68-1.2-1.13-.66-2.2-1.38-3.22-2.18-1.68-1.02-2.88-1.93-3.6-2.73-.73-.8-1.38-1.93-1.96-3.38-.95-2.33-1.6-5.02-1.97-8.08l-.22-3.38c0-7.86,2.37-18.22,7.1-31.06,4.73-12.85,11.65-27.5,20.75-43.95,8.44-15.65,16.29-28.21,23.53-37.67,7.24-9.46,12.9-14.78,16.98-15.94h1.64c1.96,0,3.82.95,5.57,2.84.73.8,1.26,1.44,1.58,1.91.33.47.49,1.11.49,1.91l-.11,1.42c-.44,6.48-4.99,17.65-13.65,33.52-5.39,9.61-12.5,20.8-21.35,33.58-8.84,12.78-17.27,24-25.28,33.68-1.67,2.04-2.91,3.59-3.71,4.64-.8,1.06-1.35,2-1.64,2.84-.29.84-.55,1.88-.76,3.11-1.31,5.39-1.97,10.26-1.97,14.63,0,3.71.47,6.66,1.42,8.84.29.87,1.05,1.31,2.29,1.31,1.16,0,2.8-.36,4.91-1.09,8.3-1.89,18.71-9.79,31.23-23.69,1.82-2.11,3.09-3.17,3.82-3.17.66,0,.98.69.98,2.07,0,.58-.13,1.27-.38,2.07-.26.8-.6,1.49-1.04,2.07-1.89,3.57-5.12,7.66-9.66,12.28-4.55,4.62-9.16,8.54-13.81,11.74-4.08,2.47-7.9,3.71-11.46,3.71Zm.11-50.55c3.28-4.51,6.15-8.44,8.63-11.79,12.08-16.38,21.31-29.81,27.68-40.29,6.37-10.48,11.08-19.83,14.14-28.06,2.26-6.33,3.38-10.41,3.38-12.23,0-.51-.11-.8-.33-.87-.29,0-1.04.62-2.24,1.86-1.2,1.24-2.6,2.78-4.2,4.64-1.6,1.86-3.17,3.77-4.69,5.73-5.53,7.28-11.74,17.2-18.62,29.75s-12.76,24.51-17.63,35.87c-1.89,4.3-3.4,7.84-4.53,10.65-1.13,2.8-1.69,4.39-1.69,4.75h.11Z"/>
        <path class="cls-1" d="m1112.31,152.43c-.73,0-1.37-.15-1.91-.44-.55-.29-1.29-.84-2.24-1.64-1.67-1.31-2.8-2.44-3.38-3.38-.58-.95-.87-2.33-.87-4.15,0-3.06,1.24-6.77,3.71-11.14s5.33-8.21,8.57-11.52c3.24-3.31,5.95-4.97,8.13-4.97,1.82,0,3.89,1,6.22,3,2.33,2,4.26,4.42,5.79,7.26l1.42,3.06c-.66,2.77-1.11,5.02-1.36,6.77-.26,1.75-.38,3.68-.38,5.79v.87c0,1.31.11,2.15.33,2.51.22.37.58.55,1.09.55l.66.11c2.47,0,6.62-2.44,12.45-7.32,3.78-3.13,6.26-4.7,7.42-4.7.8,0,1.2.62,1.2,1.86,0,.58-.11,1.13-.33,1.64-.22.51-.69,1.2-1.42,2.07-.73.87-1.82,2.07-3.28,3.6-3.06,3.28-5.5,5.53-7.32,6.77-1.82,1.24-3.57,1.86-5.24,1.86-1.38,0-2.55-.22-3.49-.66-.95-.44-2.29-1.42-4.04-2.95-1.75-1.53-2.95-3.02-3.6-4.48l-.76-2.51c-.22.22-.4.4-.55.55-3.35,3.35-6.26,6.02-8.73,8.03-2.48,2-4.8,3.15-6.99,3.44l-1.09.11Zm-1.64-5.68c4.22-2.26,9.32-6.62,15.29-13.1,1.09-1.24,2.11-2.57,3.06-3.99.94-1.42,1.75-2.67,2.4-3.77.66-1.09.98-1.78.98-2.07,0-.15-.27-.38-.82-.71s-1.2-.62-1.96-.87c-.76-.25-1.4-.38-1.91-.38-1.53,0-3.53,1.33-6.01,3.99-2.48,2.66-4.75,5.73-6.82,9.23-2.07,3.49-3.4,6.62-3.99,9.39l-.22,2.29Z"/>
        <path class="cls-1" d="m1157.07,120.11c1.31-2.47,3.13-4.93,5.46-7.37,2.33-2.44,4.15-3.66,5.46-3.66.22,0,.44.02.65.05.22.04.44.13.66.27.51.22,1.04.58,1.58,1.09.55.51,1.02.98,1.42,1.42.4.44.6.76.6.98,0,.07-.29.49-.87,1.26-.58.76-1.28,1.66-2.08,2.67-4.88,5.75-7.32,11.65-7.32,17.69,0,2.48.4,5.06,1.2,7.75.29,1.17.58,2.13.87,2.89.29.76.47,1.18.55,1.26l.11.11c.29,0,1.29-.47,3-1.42,1.71-.95,3.73-2.15,6.06-3.6,2.55-1.53,4.77-2.82,6.66-3.88,1.89-1.05,2.95-1.58,3.17-1.58.66,0,1.27.24,1.86.71.58.47.87.97.87,1.47l-.11.33c0,.22-.36.62-1.09,1.2-.73.58-1.96,1.51-3.71,2.78-1.75,1.27-4.19,3-7.32,5.19l-7.42,4.91.22,7.42c0,2.26-.02,3.99-.05,5.19-.04,1.2-.11,2.22-.22,3.06-.11.84-.31,1.73-.6,2.67-1.17,3.93-2.73,6.4-4.7,7.42-.8.36-1.67.55-2.62.55-1.46,0-3.28-.51-5.46-1.53-2.25-1.24-4.04-2.48-5.35-3.71-.66-.87-1.07-1.57-1.26-2.07-.18-.51-.27-1.31-.27-2.4,0-1.46.37-3.13,1.09-5.02.8-1.67,2.2-3.73,4.2-6.17,2-2.44,3.73-4.24,5.19-5.4.51-.36.89-.73,1.15-1.09.25-.36.38-.84.38-1.42,0-1.24-.51-3.42-1.53-6.55-1.6-5.46-2.4-9.64-2.4-12.56,0-.73.04-1.35.11-1.86.22-3.42.84-6.44,1.86-9.06Zm-2.18,54.48c.51,0,1.09-.37,1.75-1.09,2.18-3.06,3.28-7.21,3.28-12.45v-2.51c-1.97,2.48-3.57,4.73-4.8,6.77-1.24,2.04-1.86,4-1.86,5.9v.44c0,1.82.55,2.8,1.64,2.95Z"/>
        <path class="cls-1" d="m1195.84,157.89c-1.24,0-2.37-.22-3.38-.65-.51-.22-1.22-.6-2.13-1.15-.91-.55-1.88-1.18-2.89-1.91-2.4-1.75-4.08-3.6-5.02-5.57-.87-1.82-1.31-3.86-1.31-6.11,0-5.31,2.29-11.1,6.88-17.36,1.6-2.11,3.44-4.13,5.51-6.06,2.08-1.93,3.95-3.33,5.62-4.2.58-.36,1.29-.66,2.13-.87.84-.22,1.62-.33,2.35-.33,1.09,0,1.93.15,2.51.44.58.29,1.31.91,2.18,1.86,1.82,1.68,2.73,3.57,2.73,5.68,0,.95-.15,2.04-.44,3.28-.95,2.62-1.82,3.93-2.62,3.93-.29,0-.55-.22-.76-.66-.44-.36-.66-.84-.66-1.42s.22-1.42.66-2.51c.15-1.02.22-2,.22-2.95,0-.73-.07-1.35-.22-1.86-.15-.51-.33-.76-.55-.76-.58,0-1.66.64-3.22,1.91-1.57,1.27-3.08,2.78-4.53,4.53-5.9,6.41-9.17,13.1-9.83,20.09l-.11,1.2c0,3.79.95,5.61,2.84,5.46,1.31,0,3.28-.62,5.9-1.86,4.44-1.97,10.41-5.97,17.91-12.01,1.82-1.46,3.46-2.71,4.91-3.77,1.46-1.05,2.33-1.58,2.62-1.58h.22c.36,0,.78.13,1.26.38.47.26.91.58,1.31.98.4.4.6.78.6,1.15s-1.11,1.64-3.33,3.82c-2.22,2.18-4.7,4.48-7.42,6.88-2.73,2.4-5.01,4.33-6.82,5.79-5.24,4.15-9.61,6.22-13.1,6.22Z"/>
        <path class="cls-1" d="m1226.08,157.56l-1.09-.11c-.58-.15-1.11-.36-1.58-.66-.47-.29-1.02-.73-1.64-1.31-.62-.58-1.44-1.42-2.46-2.51-.8-.95-1.38-1.69-1.75-2.24s-.58-1.13-.66-1.75c-.07-.62-.11-1.51-.11-2.68,0-6.26,3.17-12.96,9.5-20.09,3.57-3.93,6.48-5.9,8.74-5.9,1.09,0,2.18.66,3.28,1.97.87,1.17,1.31,2.18,1.31,3.06,0,.73-.33,1.27-.98,1.64l-1.09.87c.73.95,1.35,1.71,1.86,2.29.66.73,1.16,1.42,1.53,2.07.36.66.69,1.71.98,3.17.14,1.09.22,2.15.22,3.17,0,1.09-.07,2.18-.22,3.28-.95,4-3.09,7.63-6.44,10.86-3.35,3.24-6.48,4.86-9.39,4.86Zm-1.97-7.1c.29,0,.73-.13,1.31-.38.58-.25,1.16-.6,1.75-1.04,5.75-4.44,8.81-9.28,9.17-14.52,0-1.02-.02-1.76-.05-2.24-.04-.47-.13-.8-.27-.98-.15-.18-.4-.31-.76-.38-.29-.07-.51-.13-.66-.16-.15-.04-.29-.05-.44-.05-.51.07-1.13.53-1.86,1.36-.73.84-1.71,2.13-2.95,3.88-2.91,4.66-4.84,8.77-5.79,12.34l-.22,1.53c0,.29.05.47.16.55.11.07.31.11.6.11Z"/>
      </g>
    </g>
  </g>
</svg>